<mxfile host="app.diagrams.net" modified="2022-10-06T09:39:24.725Z" agent="5.0 (Macintosh; Intel Mac OS X 10_14_6) AppleWebKit/537.36 (KHTML, like Gecko) Chrome/105.0.0.0 Safari/537.36" etag="wJPExaoS3u4ICsMa4SKJ" version="20.3.6" type="github">
  <diagram id="dmdsObgAOV0-IKqhFlAP" name="第 1 页">
    <mxGraphModel dx="946" dy="589" grid="1" gridSize="10" guides="1" tooltips="1" connect="1" arrows="1" fold="1" page="1" pageScale="1" pageWidth="827" pageHeight="1169" math="0" shadow="0">
      <root>
        <mxCell id="0" />
        <mxCell id="1" parent="0" />
        <mxCell id="1q_-e4AHVBE6PLNsclxO-1" style="edgeStyle=orthogonalEdgeStyle;rounded=0;orthogonalLoop=1;jettySize=auto;html=1;entryX=0;entryY=0.5;entryDx=0;entryDy=0;strokeColor=#333333;fontColor=#5C5C5C;fillColor=#21C0A5;exitX=1;exitY=0.5;exitDx=0;exitDy=0;" edge="1" parent="1" source="1q_-e4AHVBE6PLNsclxO-34" target="1q_-e4AHVBE6PLNsclxO-4">
          <mxGeometry relative="1" as="geometry">
            <mxPoint x="158" y="140" as="sourcePoint" />
          </mxGeometry>
        </mxCell>
        <mxCell id="1q_-e4AHVBE6PLNsclxO-3" style="edgeStyle=orthogonalEdgeStyle;rounded=0;orthogonalLoop=1;jettySize=auto;html=1;entryX=0.5;entryY=0;entryDx=0;entryDy=0;strokeColor=#333333;fontSize=10;fontColor=#5C5C5C;fillColor=#21C0A5;" edge="1" parent="1" source="1q_-e4AHVBE6PLNsclxO-4">
          <mxGeometry relative="1" as="geometry">
            <mxPoint x="256" y="192" as="targetPoint" />
          </mxGeometry>
        </mxCell>
        <mxCell id="1q_-e4AHVBE6PLNsclxO-4" value="doCreateBean()" style="rounded=1;whiteSpace=wrap;html=1;strokeWidth=1;fillWeight=4;hachureGap=8;hachureAngle=45;fillColor=#FFF1DE;sketch=1;strokeColor=#d79b00;" vertex="1" parent="1">
          <mxGeometry x="204.5" y="120" width="103" height="40" as="geometry" />
        </mxCell>
        <mxCell id="1q_-e4AHVBE6PLNsclxO-7" value="" style="rounded=1;whiteSpace=wrap;html=1;strokeColor=#333333;fontColor=#5C5C5C;fillColor=none;dashed=1;" vertex="1" parent="1">
          <mxGeometry x="40" y="191" width="430" height="429" as="geometry" />
        </mxCell>
        <mxCell id="1q_-e4AHVBE6PLNsclxO-8" value="&lt;span style=&quot;font-family: Helvetica; font-style: normal; font-variant-ligatures: normal; font-variant-caps: normal; letter-spacing: normal; orphans: 2; text-align: center; text-indent: 0px; text-transform: none; widows: 2; word-spacing: 0px; -webkit-text-stroke-width: 0px; background-color: rgb(248, 249, 250); text-decoration-thickness: initial; text-decoration-style: initial; text-decoration-color: initial; float: none; display: inline !important;&quot;&gt;&lt;font color=&quot;#ff0000&quot; style=&quot;font-size: 14px;&quot;&gt;&lt;b&gt;Part1：后置处理&lt;/b&gt;&lt;/font&gt;&lt;/span&gt;" style="text;whiteSpace=wrap;html=1;fontColor=#5C5C5C;" vertex="1" parent="1">
          <mxGeometry x="215" y="201" width="110" height="30" as="geometry" />
        </mxCell>
        <mxCell id="1q_-e4AHVBE6PLNsclxO-18" value="获取所有切面" style="rounded=1;whiteSpace=wrap;html=1;strokeWidth=1;fillWeight=4;hachureGap=8;hachureAngle=45;fillColor=#fff2cc;sketch=1;strokeColor=#d6b656;gradientColor=none;" vertex="1" parent="1">
          <mxGeometry x="90" y="231" width="140" height="40" as="geometry" />
        </mxCell>
        <mxCell id="1q_-e4AHVBE6PLNsclxO-19" value="获取 louzai 的所有方法" style="rounded=1;whiteSpace=wrap;html=1;strokeWidth=1;fillWeight=4;hachureGap=8;hachureAngle=45;fillColor=#fff2cc;sketch=1;strokeColor=#d6b656;gradientColor=none;" vertex="1" parent="1">
          <mxGeometry x="90" y="301" width="140" height="40" as="geometry" />
        </mxCell>
        <mxCell id="1q_-e4AHVBE6PLNsclxO-20" value="" style="shape=curlyBracket;whiteSpace=wrap;html=1;rounded=1;flipH=1;labelBackgroundColor=none;strokeColor=#333333;strokeWidth=1;fontSize=10;fontColor=#5C5C5C;fillColor=none;" vertex="1" parent="1">
          <mxGeometry x="240" y="251" width="34" height="80" as="geometry" />
        </mxCell>
        <mxCell id="1q_-e4AHVBE6PLNsclxO-21" style="edgeStyle=orthogonalEdgeStyle;rounded=0;orthogonalLoop=1;jettySize=auto;html=1;entryX=0.5;entryY=0;entryDx=0;entryDy=0;strokeColor=#333333;fontSize=10;fontColor=#5C5C5C;fillColor=#21C0A5;" edge="1" parent="1" source="1q_-e4AHVBE6PLNsclxO-22" target="1q_-e4AHVBE6PLNsclxO-25">
          <mxGeometry relative="1" as="geometry" />
        </mxCell>
        <mxCell id="1q_-e4AHVBE6PLNsclxO-22" value="louzai 的切面方法列表" style="rounded=1;whiteSpace=wrap;html=1;strokeWidth=1;fillWeight=4;hachureGap=8;hachureAngle=45;fillColor=#fff2cc;sketch=1;strokeColor=#d6b656;gradientColor=none;" vertex="1" parent="1">
          <mxGeometry x="275" y="360" width="140" height="40" as="geometry" />
        </mxCell>
        <mxCell id="1q_-e4AHVBE6PLNsclxO-23" value="&lt;span style=&quot;color: rgb(0, 0, 0); font-family: Helvetica; font-size: 12px; font-style: normal; font-variant-ligatures: normal; font-variant-caps: normal; font-weight: 400; letter-spacing: normal; orphans: 2; text-align: center; text-indent: 0px; text-transform: none; widows: 2; word-spacing: 0px; -webkit-text-stroke-width: 0px; background-color: rgb(248, 249, 250); text-decoration-thickness: initial; text-decoration-style: initial; text-decoration-color: initial; float: none; display: inline !important;&quot;&gt;匹&lt;br&gt;配&lt;/span&gt;" style="text;whiteSpace=wrap;html=1;fontSize=10;fontColor=#5C5C5C;" vertex="1" parent="1">
          <mxGeometry x="240" y="271" width="10" height="30" as="geometry" />
        </mxCell>
        <mxCell id="1q_-e4AHVBE6PLNsclxO-24" style="edgeStyle=orthogonalEdgeStyle;rounded=0;orthogonalLoop=1;jettySize=auto;html=1;entryX=0.5;entryY=0;entryDx=0;entryDy=0;strokeColor=#333333;fontSize=10;fontColor=#5C5C5C;fillColor=#21C0A5;" edge="1" parent="1" source="1q_-e4AHVBE6PLNsclxO-25" target="1q_-e4AHVBE6PLNsclxO-29">
          <mxGeometry relative="1" as="geometry">
            <mxPoint x="345" y="550" as="targetPoint" />
          </mxGeometry>
        </mxCell>
        <mxCell id="1q_-e4AHVBE6PLNsclxO-25" value="" style="rounded=1;whiteSpace=wrap;html=1;strokeColor=default;fontColor=#5C5C5C;fillColor=none;dashed=1;dashPattern=1 1;" vertex="1" parent="1">
          <mxGeometry x="250" y="452.5" width="190" height="55" as="geometry" />
        </mxCell>
        <mxCell id="1q_-e4AHVBE6PLNsclxO-26" value="Cglib" style="rounded=1;whiteSpace=wrap;html=1;strokeWidth=1;fillWeight=4;hachureGap=8;hachureAngle=45;fillColor=#dae8fc;sketch=1;strokeColor=#6c8ebf;" vertex="1" parent="1">
          <mxGeometry x="269" y="460" width="60" height="40" as="geometry" />
        </mxCell>
        <mxCell id="1q_-e4AHVBE6PLNsclxO-27" value="SDK" style="rounded=1;whiteSpace=wrap;html=1;strokeWidth=1;fillWeight=4;hachureGap=8;hachureAngle=45;fillColor=#dae8fc;sketch=1;strokeColor=#6c8ebf;" vertex="1" parent="1">
          <mxGeometry x="359" y="460" width="60" height="40" as="geometry" />
        </mxCell>
        <mxCell id="1q_-e4AHVBE6PLNsclxO-28" value="&lt;span style=&quot;color: rgb(0, 0, 0); font-family: Helvetica; font-size: 12px; font-style: normal; font-variant-ligatures: normal; font-variant-caps: normal; font-weight: 400; letter-spacing: normal; orphans: 2; text-align: center; text-indent: 0px; text-transform: none; widows: 2; word-spacing: 0px; -webkit-text-stroke-width: 0px; background-color: rgb(248, 249, 250); text-decoration-thickness: initial; text-decoration-style: initial; text-decoration-color: initial; float: none; display: inline !important;&quot;&gt;入口&lt;/span&gt;" style="text;whiteSpace=wrap;html=1;fontSize=10;fontColor=#5C5C5C;" vertex="1" parent="1">
          <mxGeometry x="96" y="90" width="50" height="30" as="geometry" />
        </mxCell>
        <mxCell id="1q_-e4AHVBE6PLNsclxO-29" value="&lt;span style=&quot;font-size: 12px;&quot;&gt;创建 AOP 代理对象&lt;/span&gt;" style="ellipse;whiteSpace=wrap;html=1;strokeWidth=1;fillWeight=2;hachureGap=8;fillColor=#fff2cc;fillStyle=dots;sketch=1;dashed=1;dashPattern=1 1;labelBackgroundColor=none;strokeColor=#d6b656;fontSize=10;" vertex="1" parent="1">
          <mxGeometry x="281.99" y="540" width="126" height="60" as="geometry" />
        </mxCell>
        <mxCell id="1q_-e4AHVBE6PLNsclxO-33" style="edgeStyle=orthogonalEdgeStyle;rounded=0;orthogonalLoop=1;jettySize=auto;html=1;entryX=0.5;entryY=0;entryDx=0;entryDy=0;" edge="1" parent="1" source="1q_-e4AHVBE6PLNsclxO-32" target="1q_-e4AHVBE6PLNsclxO-22">
          <mxGeometry relative="1" as="geometry" />
        </mxCell>
        <mxCell id="1q_-e4AHVBE6PLNsclxO-32" value="事务属性放入缓存&lt;br&gt;attributeCache" style="rounded=1;whiteSpace=wrap;html=1;strokeWidth=1;fillWeight=4;hachureGap=8;hachureAngle=45;fillColor=#F8ECE9;sketch=1;strokeColor=#FFCCCC;" vertex="1" parent="1">
          <mxGeometry x="275" y="271" width="140" height="40" as="geometry" />
        </mxCell>
        <mxCell id="1q_-e4AHVBE6PLNsclxO-34" value="refresh()" style="rounded=1;whiteSpace=wrap;html=1;strokeWidth=1;fillWeight=4;hachureGap=8;hachureAngle=45;fillColor=#FFF1DE;sketch=1;strokeColor=#d79b00;" vertex="1" parent="1">
          <mxGeometry x="60" y="120" width="103" height="40" as="geometry" />
        </mxCell>
        <mxCell id="1q_-e4AHVBE6PLNsclxO-55" style="edgeStyle=orthogonalEdgeStyle;rounded=0;orthogonalLoop=1;jettySize=auto;html=1;entryX=0;entryY=0.5;entryDx=0;entryDy=0;strokeColor=#333333;fontColor=#5C5C5C;fillColor=#21C0A5;exitX=1;exitY=0.5;exitDx=0;exitDy=0;" edge="1" parent="1" source="1q_-e4AHVBE6PLNsclxO-74" target="1q_-e4AHVBE6PLNsclxO-57">
          <mxGeometry relative="1" as="geometry">
            <mxPoint x="160" y="720" as="sourcePoint" />
          </mxGeometry>
        </mxCell>
        <mxCell id="1q_-e4AHVBE6PLNsclxO-75" style="edgeStyle=orthogonalEdgeStyle;rounded=0;orthogonalLoop=1;jettySize=auto;html=1;entryX=0.5;entryY=0;entryDx=0;entryDy=0;" edge="1" parent="1" source="1q_-e4AHVBE6PLNsclxO-57" target="1q_-e4AHVBE6PLNsclxO-58">
          <mxGeometry relative="1" as="geometry" />
        </mxCell>
        <mxCell id="1q_-e4AHVBE6PLNsclxO-57" value="invokeWithinTransaction()" style="rounded=1;whiteSpace=wrap;html=1;strokeWidth=1;fillWeight=4;hachureGap=8;hachureAngle=45;fillColor=#FFF1DE;sketch=1;strokeColor=#d79b00;" vertex="1" parent="1">
          <mxGeometry x="175.25" y="700" width="163.5" height="40" as="geometry" />
        </mxCell>
        <mxCell id="1q_-e4AHVBE6PLNsclxO-58" value="" style="rounded=1;whiteSpace=wrap;html=1;strokeColor=#333333;fontColor=#5C5C5C;fillColor=none;dashed=1;" vertex="1" parent="1">
          <mxGeometry x="42" y="770" width="430" height="430" as="geometry" />
        </mxCell>
        <mxCell id="1q_-e4AHVBE6PLNsclxO-59" value="&lt;span style=&quot;font-family: Helvetica; font-style: normal; font-variant-ligatures: normal; font-variant-caps: normal; letter-spacing: normal; orphans: 2; text-align: center; text-indent: 0px; text-transform: none; widows: 2; word-spacing: 0px; -webkit-text-stroke-width: 0px; background-color: rgb(248, 249, 250); text-decoration-thickness: initial; text-decoration-style: initial; text-decoration-color: initial; float: none; display: inline !important;&quot;&gt;&lt;font color=&quot;#ff0000&quot; style=&quot;font-size: 14px;&quot;&gt;&lt;b&gt;Part2：事务执行&lt;/b&gt;&lt;/font&gt;&lt;/span&gt;" style="text;whiteSpace=wrap;html=1;fontColor=#5C5C5C;" vertex="1" parent="1">
          <mxGeometry x="217" y="781" width="110" height="30" as="geometry" />
        </mxCell>
        <mxCell id="1q_-e4AHVBE6PLNsclxO-60" value="获取所有切面" style="rounded=1;whiteSpace=wrap;html=1;strokeWidth=1;fillWeight=4;hachureGap=8;hachureAngle=45;fillColor=#fff2cc;sketch=1;strokeColor=#d6b656;gradientColor=none;" vertex="1" parent="1">
          <mxGeometry x="92" y="811" width="140" height="40" as="geometry" />
        </mxCell>
        <mxCell id="1q_-e4AHVBE6PLNsclxO-61" value="获取 louzai 的所有方法" style="rounded=1;whiteSpace=wrap;html=1;strokeWidth=1;fillWeight=4;hachureGap=8;hachureAngle=45;fillColor=#fff2cc;sketch=1;strokeColor=#d6b656;gradientColor=none;" vertex="1" parent="1">
          <mxGeometry x="92" y="881" width="140" height="40" as="geometry" />
        </mxCell>
        <mxCell id="1q_-e4AHVBE6PLNsclxO-62" value="" style="shape=curlyBracket;whiteSpace=wrap;html=1;rounded=1;flipH=1;labelBackgroundColor=none;strokeColor=#333333;strokeWidth=1;fontSize=10;fontColor=#5C5C5C;fillColor=none;" vertex="1" parent="1">
          <mxGeometry x="242" y="831" width="34" height="80" as="geometry" />
        </mxCell>
        <mxCell id="1q_-e4AHVBE6PLNsclxO-63" style="edgeStyle=orthogonalEdgeStyle;rounded=0;orthogonalLoop=1;jettySize=auto;html=1;entryX=0.5;entryY=0;entryDx=0;entryDy=0;strokeColor=#333333;fontSize=10;fontColor=#5C5C5C;fillColor=#21C0A5;" edge="1" parent="1" source="1q_-e4AHVBE6PLNsclxO-64" target="1q_-e4AHVBE6PLNsclxO-67">
          <mxGeometry relative="1" as="geometry" />
        </mxCell>
        <mxCell id="1q_-e4AHVBE6PLNsclxO-64" value="louzai 的切面方法列表" style="rounded=1;whiteSpace=wrap;html=1;strokeWidth=1;fillWeight=4;hachureGap=8;hachureAngle=45;fillColor=#fff2cc;sketch=1;strokeColor=#d6b656;gradientColor=none;" vertex="1" parent="1">
          <mxGeometry x="277" y="940" width="140" height="40" as="geometry" />
        </mxCell>
        <mxCell id="1q_-e4AHVBE6PLNsclxO-65" value="&lt;span style=&quot;color: rgb(0, 0, 0); font-family: Helvetica; font-size: 12px; font-style: normal; font-variant-ligatures: normal; font-variant-caps: normal; font-weight: 400; letter-spacing: normal; orphans: 2; text-align: center; text-indent: 0px; text-transform: none; widows: 2; word-spacing: 0px; -webkit-text-stroke-width: 0px; background-color: rgb(248, 249, 250); text-decoration-thickness: initial; text-decoration-style: initial; text-decoration-color: initial; float: none; display: inline !important;&quot;&gt;匹&lt;br&gt;配&lt;/span&gt;" style="text;whiteSpace=wrap;html=1;fontSize=10;fontColor=#5C5C5C;" vertex="1" parent="1">
          <mxGeometry x="242" y="851" width="10" height="30" as="geometry" />
        </mxCell>
        <mxCell id="1q_-e4AHVBE6PLNsclxO-66" style="edgeStyle=orthogonalEdgeStyle;rounded=0;orthogonalLoop=1;jettySize=auto;html=1;entryX=0.5;entryY=0;entryDx=0;entryDy=0;strokeColor=#333333;fontSize=10;fontColor=#5C5C5C;fillColor=#21C0A5;" edge="1" parent="1" source="1q_-e4AHVBE6PLNsclxO-67" target="1q_-e4AHVBE6PLNsclxO-71">
          <mxGeometry relative="1" as="geometry">
            <mxPoint x="347" y="1130" as="targetPoint" />
          </mxGeometry>
        </mxCell>
        <mxCell id="1q_-e4AHVBE6PLNsclxO-67" value="" style="rounded=1;whiteSpace=wrap;html=1;strokeColor=default;fontColor=#5C5C5C;fillColor=none;dashed=1;dashPattern=1 1;" vertex="1" parent="1">
          <mxGeometry x="252" y="1032.5" width="190" height="55" as="geometry" />
        </mxCell>
        <mxCell id="1q_-e4AHVBE6PLNsclxO-68" value="Cglib" style="rounded=1;whiteSpace=wrap;html=1;strokeWidth=1;fillWeight=4;hachureGap=8;hachureAngle=45;fillColor=#dae8fc;sketch=1;strokeColor=#6c8ebf;" vertex="1" parent="1">
          <mxGeometry x="271" y="1040" width="60" height="40" as="geometry" />
        </mxCell>
        <mxCell id="1q_-e4AHVBE6PLNsclxO-69" value="SDK" style="rounded=1;whiteSpace=wrap;html=1;strokeWidth=1;fillWeight=4;hachureGap=8;hachureAngle=45;fillColor=#dae8fc;sketch=1;strokeColor=#6c8ebf;" vertex="1" parent="1">
          <mxGeometry x="361" y="1040" width="60" height="40" as="geometry" />
        </mxCell>
        <mxCell id="1q_-e4AHVBE6PLNsclxO-70" value="&lt;span style=&quot;color: rgb(0, 0, 0); font-family: Helvetica; font-size: 12px; font-style: normal; font-variant-ligatures: normal; font-variant-caps: normal; font-weight: 400; letter-spacing: normal; orphans: 2; text-align: center; text-indent: 0px; text-transform: none; widows: 2; word-spacing: 0px; -webkit-text-stroke-width: 0px; background-color: rgb(248, 249, 250); text-decoration-thickness: initial; text-decoration-style: initial; text-decoration-color: initial; float: none; display: inline !important;&quot;&gt;执行&lt;/span&gt;" style="text;whiteSpace=wrap;html=1;fontSize=10;fontColor=#5C5C5C;" vertex="1" parent="1">
          <mxGeometry x="86.5" y="670" width="50" height="30" as="geometry" />
        </mxCell>
        <mxCell id="1q_-e4AHVBE6PLNsclxO-71" value="&lt;span style=&quot;font-size: 12px;&quot;&gt;创建 AOP 代理对象&lt;/span&gt;" style="ellipse;whiteSpace=wrap;html=1;strokeWidth=1;fillWeight=2;hachureGap=8;fillColor=#fff2cc;fillStyle=dots;sketch=1;dashed=1;dashPattern=1 1;labelBackgroundColor=none;strokeColor=#d6b656;fontSize=10;" vertex="1" parent="1">
          <mxGeometry x="283.99" y="1120" width="126" height="60" as="geometry" />
        </mxCell>
        <mxCell id="1q_-e4AHVBE6PLNsclxO-72" style="edgeStyle=orthogonalEdgeStyle;rounded=0;orthogonalLoop=1;jettySize=auto;html=1;entryX=0.5;entryY=0;entryDx=0;entryDy=0;" edge="1" parent="1" source="1q_-e4AHVBE6PLNsclxO-73" target="1q_-e4AHVBE6PLNsclxO-64">
          <mxGeometry relative="1" as="geometry" />
        </mxCell>
        <mxCell id="1q_-e4AHVBE6PLNsclxO-73" value="事务属性放入缓存&lt;br&gt;attributeCache" style="rounded=1;whiteSpace=wrap;html=1;strokeWidth=1;fillWeight=4;hachureGap=8;hachureAngle=45;fillColor=#F8ECE9;sketch=1;strokeColor=#FFCCCC;" vertex="1" parent="1">
          <mxGeometry x="277" y="851" width="140" height="40" as="geometry" />
        </mxCell>
        <mxCell id="1q_-e4AHVBE6PLNsclxO-74" value="testSuccess()" style="rounded=1;whiteSpace=wrap;html=1;strokeWidth=1;fillWeight=4;hachureGap=8;hachureAngle=45;fillColor=#FFF1DE;sketch=1;strokeColor=#d79b00;" vertex="1" parent="1">
          <mxGeometry x="50" y="700" width="93" height="40" as="geometry" />
        </mxCell>
      </root>
    </mxGraphModel>
  </diagram>
</mxfile>
